<?xml version="1.0" encoding="UTF-8"?>
<svg id="Laag_2" data-name="Laag 2" xmlns="http://www.w3.org/2000/svg" xmlns:xlink="http://www.w3.org/1999/xlink" viewBox="0 0 37.75 29.89">
  <defs>
    <style>
      .cls-1 {
        fill: url(#Naamloos_verloop_23);
      }

      .cls-1, .cls-2, .cls-3, .cls-4 {
        stroke-width: 0px;
      }

      .cls-2 {
        fill: url(#Naamloos_verloop_18);
      }

      .cls-3 {
        fill: #161616;
      }

      .cls-4 {
        fill: #150559;
      }
    </style>
    <radialGradient id="Naamloos_verloop_23" data-name="Naamloos verloop 23" cx="11.97" cy="11.97" fx="11.97" fy="11.97" r="11.97" gradientUnits="userSpaceOnUse">
      <stop offset="0" stop-color="#ffcad4"/>
      <stop offset=".1" stop-color="#ffcbd4" stop-opacity=".98"/>
      <stop offset=".23" stop-color="#ffced7" stop-opacity=".92"/>
      <stop offset=".36" stop-color="#ffd3db" stop-opacity=".83"/>
      <stop offset=".5" stop-color="#ffd9e0" stop-opacity=".7"/>
      <stop offset=".65" stop-color="#ffe2e8" stop-opacity=".53"/>
      <stop offset=".8" stop-color="#ffedf1" stop-opacity=".32"/>
      <stop offset=".95" stop-color="#fffafb" stop-opacity=".08"/>
      <stop offset="1" stop-color="#fff" stop-opacity="0"/>
    </radialGradient>
    <radialGradient id="Naamloos_verloop_18" data-name="Naamloos verloop 18" cx="24.8" cy="16.94" fx="24.8" fy="16.94" r="12.95" gradientUnits="userSpaceOnUse">
      <stop offset=".16" stop-color="#aac8fa"/>
      <stop offset="1" stop-color="#fff" stop-opacity="0"/>
    </radialGradient>
  </defs>
  <g id="Laag_1-2" data-name="Laag 1">
    <g>
      <circle class="cls-1" cx="11.97" cy="11.97" r="11.97"/>
      <circle class="cls-2" cx="24.8" cy="16.94" r="12.95"/>
      <path class="cls-3" d="m21.03,14.27h0c.02.25.06.49.1.72s.11.44.2.63.21.34.36.45.35.17.6.17c.32,0,.58-.09.8-.28s.4-.44.55-.75.28-.65.38-1.02.2-.75.29-1.12c.04-.16.08-.32.12-.48l.02-.08c.03-.11.05-.21.06-.29s-.03-.13-.12-.13c-.05,0-.09.03-.11.09,0,.02-.02.07-.04.14-.04.16-.11.4-.2.7s-.19.62-.31.95-.25.61-.39.85-.28.35-.42.35c-.06,0-.14-.08-.22-.25s-.13-.36-.14-.59c0-.76.04-1.5.13-2.21.04-.39.07-.74.09-1.04s0-.55-.04-.73-.14-.27-.29-.27c-.08,0-.15.03-.21.09s-.14.15-.23.26c-.04.04-.08.09-.12.14-.02,0-.04,0-.06-.02s-.03-.03-.04-.04l-.02-.02c-.18-.23-.38-.4-.59-.5s-.44-.15-.67-.15c-.41,0-.79.14-1.15.42s-.66.64-.91,1.09c-.19.34-.34.7-.46,1.08,0,0,0,0,0,0-.08.1-.17.19-.26.28s-.2.17-.32.23-.27.09-.43.09c-.11,0-.14-.07-.1-.21s.1-.32.2-.54c.13-.29.24-.61.33-.95s.08-.65-.04-.93c-.11-.21-.26-.32-.45-.32-.25,0-.51.14-.77.43s-.43.64-.52,1.07,0,.86.23,1.3c.02.02.03.05.03.08s0,.08-.02.14-.05.15-.11.27-.13.27-.24.47-.24.44-.4.74c-.19-.23-.32-.58-.38-1.07s-.11-1-.13-1.55c-.02-.35-.04-.67-.06-.97s-.07-.54-.13-.72-.15-.28-.27-.28c-.16,0-.29.11-.41.33s-.21.51-.28.88c-.07.36-.11.75-.12,1.17-.04.06-.08.11-.13.18-.11.15-.21.29-.32.43-.04.05-.09.11-.13.18-.2.25-.42.53-.67.83s-.53.59-.82.87-.6.51-.92.69-.63.28-.96.28-.55-.05-.72-.16-.28-.25-.33-.41-.06-.35-.02-.54.11-.38.21-.55.23-.32.37-.45c.37-.29.73-.53,1.09-.71.3-.16.55-.31.75-.47s.3-.36.31-.61c-.01-.33-.16-.49-.45-.49-.11,0-.21.02-.31.05-.11.04-.23.06-.36.06-.25,0-.43-.08-.53-.23s-.14-.34-.13-.57.07-.48.17-.74.22-.51.37-.74.3-.42.47-.57.32-.23.47-.23c.09,0,.13.05.13.14,0,.11-.02.19-.06.26s-.08.13-.13.18c-.06.07-.11.14-.14.22-.04.11-.03.19.03.25s.13.1.24.1c.07,0,.15-.02.22-.05s.14-.08.22-.13c.1-.06.21-.12.32-.17.24-.1.4-.25.49-.44s.11-.4.06-.62-.16-.4-.34-.55-.41-.23-.7-.23c-.5,0-.99.15-1.46.46s-.87.7-1.19,1.17-.52.96-.59,1.48.03.99.31,1.42c.08.11.12.19.11.23s-.08.1-.22.16c-.53.29-.92.66-1.18,1.1s-.4.92-.42,1.44c.02.36.12.7.3,1.01s.42.56.71.76.63.29,1,.29c.43,0,.87-.12,1.32-.36s.87-.54,1.28-.91.78-.76,1.13-1.18.64-.81.88-1.18c.12-.19.23-.36.32-.52,0,.29,0,.58.03.87.04.43.12.83.23,1.19s.26.65.44.88.4.33.67.33c.14,0,.28-.05.39-.16.27-.27.48-.56.65-.86s.3-.59.41-.85c.1-.23.19-.42.27-.57s.18-.22.28-.22h.04c.27,0,.5-.06.71-.18.15-.09.27-.2.38-.31-.1.46-.15.91-.12,1.35.03.48.16.9.38,1.25.29.43.64.65,1.05.65.22,0,.42-.05.59-.16s.33-.25.47-.42.26-.36.37-.56.21-.39.3-.58c.03-.06.06-.12.09-.17.01,0,.02,0,.04,0Zm-4.65-2.45c-.05.14-.11.29-.16.45-.11-.28-.1-.61.03-.99s.31-.63.54-.77c-.1.45-.23.89-.41,1.31Zm4.48,1.42c-.11.23-.24.46-.37.69s-.27.43-.42.6-.28.25-.42.25c-.12,0-.2-.04-.25-.13s-.08-.19-.09-.29-.02-.19-.02-.26v-.06c.04-.53.14-.99.28-1.37s.31-.69.5-.94.37-.42.55-.54.31-.17.41-.17.18.04.25.11.12.16.15.26.04.19.03.26c-.04.21-.09.41-.14.61s-.13.4-.24.58c-.06.12-.13.25-.21.4Z"/>
      <path class="cls-3" d="m25.17,9.75c0-.07,0-.15-.03-.22s-.05-.13-.09-.18c-.05-.06-.11-.1-.18-.12s-.13-.02-.19,0c-.07.03-.13.09-.19.17s-.08.16-.08.23c.02.14.11.23.26.25.13.03.15.09.07.18-.04.04-.08.07-.13.1-.04.02-.06.05-.08.07s-.02.06,0,.1c.02.04.05.06.09.06s.07,0,.11-.02c.26-.1.4-.31.43-.63Z"/>
      <path class="cls-3" d="m25.81,11.79s-.02,0-.02,0c-.13.06-.24.15-.33.25s-.14.21-.16.32-.02.22.02.31.11.18.22.24.25.1.43.1c.2,0,.38-.05.53-.16s.26-.26.32-.44.05-.39-.03-.61c-.02-.04-.02-.08,0-.1s.04-.04.09-.07c.07-.03.18-.1.33-.22.08-.07.15-.15.21-.23s.09-.16.11-.22,0-.1-.05-.1c-.02,0-.03,0-.04.02s-.02.03-.03.04c-.05.08-.12.17-.22.26s-.19.17-.29.23-.16.1-.2.1c-.03,0-.05-.02-.07-.06-.05-.09-.13-.18-.23-.28-.11-.1-.21-.21-.28-.33s-.08-.25-.01-.39c.1-.16.23-.24.4-.24.04,0,.08,0,.12.01,0,0,0,0,0,0,.02,0,.05.01.07.01.05,0,.08-.02.1-.07s.02-.1,0-.15-.06-.11-.13-.15-.16-.07-.29-.07c-.14,0-.28.04-.42.13s-.26.21-.35.36-.13.34-.11.55.11.44.28.69c.03.04.06.08.08.13.01.02.02.04.04.06,0,.02-.02.03-.03.04s-.03.01-.04.02Zm.16.18s.04.02.06.06.02.09.03.14,0,.09,0,.12c0,.08,0,.14-.04.18s-.08.06-.15.06c-.09,0-.16-.03-.21-.08s-.07-.12-.06-.19.03-.13.08-.17c.04-.04.09-.07.16-.09s.1-.04.13-.04Z"/>
      <g>
        <polygon class="cls-4" points="18.93 17.05 18.46 17.05 17.58 18.27 17.58 17.05 17.14 17.05 17.14 19.49 17.58 19.49 17.58 18.87 17.94 18.4 18.49 19.49 19 19.49 18.24 18.04 18.93 17.05"/>
        <path class="cls-4" d="m19.92,17.59c-.38,0-.85.21-.85.98,0,.66.3.98.8.98s.86-.32.86-1.03c0-.84-.53-.93-.8-.93Zm-.03,1.63c-.33,0-.38-.37-.38-.71s.12-.6.39-.6.37.25.37.66c0,.38-.11.65-.38.65Z"/>
        <path class="cls-4" d="m21.83,17.59c-.38,0-.85.21-.85.98,0,.66.3.98.8.98s.86-.32.86-1.03c0-.84-.53-.93-.8-.93Zm-.03,1.63c-.33,0-.38-.37-.38-.71s.12-.6.39-.6.37.25.37.66c0,.38-.11.65-.38.65Z"/>
        <path class="cls-4" d="m24.49,18.03c0-.32-.21-.44-.43-.44-.32,0-.52.2-.63.41h-.01v-1.06h-.44v2.55h.44v-.6c.1,0,.19-.02.27-.04l.34.64h.49l-.43-.8c.29-.18.39-.44.39-.65Zm-1.06.54c.03-.28.24-.64.47-.64.1,0,.14.07.14.16,0,.26-.23.44-.61.48Z"/>
        <path class="cls-4" d="m25.67,17.59c-.17,0-.33.06-.43.15v-.8h-.44v2.45c.15.09.47.16.73.16.55,0,.87-.35.87-1.07,0-.57-.28-.89-.73-.89Zm-.12,1.64c-.12,0-.24-.04-.31-.07v-.98c0-.17.15-.28.32-.28.34,0,.41.34.41.63,0,.5-.16.7-.42.7Z"/>
        <path class="cls-4" d="m27.52,17.59c-.38,0-.85.21-.85.98,0,.66.3.98.8.98s.86-.32.86-1.03c0-.84-.53-.93-.8-.93Zm-.03,1.63c-.33,0-.38-.37-.38-.71s.12-.6.39-.6.37.25.37.66c0,.38-.11.65-.38.65Z"/>
        <path class="cls-4" d="m29.47,19.21c-.31,0-.45-.23-.46-.47.34,0,1.04-.08,1.04-.64,0-.33-.22-.51-.58-.51-.58,0-.9.48-.9,1.02s.25.94.85.94c.34,0,.59-.15.65-.21l-.14-.29c-.09.06-.25.16-.46.16Zm-.03-1.31c.13,0,.22.08.22.22,0,.28-.47.35-.66.34.01-.27.15-.56.44-.56Z"/>
        <path class="cls-4" d="m31.47,18.68c.29-.18.39-.44.39-.65,0-.32-.21-.44-.43-.44-.32,0-.52.2-.63.41h-.01v-1.06h-.44v2.55h.44v-.6c.1,0,.19-.02.27-.04l.34.64h.49l-.43-.8Zm-.67-.11c.03-.28.24-.64.47-.64.1,0,.14.07.14.16,0,.26-.23.44-.61.48Z"/>
      </g>
    </g>
  </g>
</svg>